<?xml version="1.0" encoding="UTF-8" standalone="no"?>
<svg
   xmlns:dc="http://purl.org/dc/elements/1.1/"
   xmlns:cc="http://creativecommons.org/ns#"
   xmlns:rdf="http://www.w3.org/1999/02/22-rdf-syntax-ns#"
   xmlns:svg="http://www.w3.org/2000/svg"
   xmlns="http://www.w3.org/2000/svg"
   xmlns:sodipodi="http://sodipodi.sourceforge.net/DTD/sodipodi-0.dtd"
   xmlns:inkscape="http://www.inkscape.org/namespaces/inkscape"
   width="1068"
   height="460"
   viewBox="0 0 1068 460"
   fill="none"
   version="1.1"
   id="svg20"
   sodipodi:docname="cargo-contract-color-clipped.svg"
   inkscape:version="1.0.2 (e86c870879, 2021-01-15, custom)">
  <metadata
     id="metadata26">
    <rdf:RDF>
      <cc:Work
         rdf:about="">
        <dc:format>image/svg+xml</dc:format>
        <dc:type
           rdf:resource="http://purl.org/dc/dcmitype/StillImage" />
        <dc:title></dc:title>
      </cc:Work>
    </rdf:RDF>
  </metadata>
  <defs
     id="defs24" />
  <sodipodi:namedview
     pagecolor="#ffffff"
     bordercolor="#666666"
     borderopacity="1"
     objecttolerance="10"
     gridtolerance="10"
     guidetolerance="10"
     inkscape:pageopacity="0"
     inkscape:pageshadow="2"
     inkscape:window-width="1918"
     inkscape:window-height="1055"
     id="namedview22"
     showgrid="false"
     inkscape:zoom="0.51484375"
     inkscape:cx="640"
     inkscape:cy="320"
     inkscape:window-x="0"
     inkscape:window-y="23"
     inkscape:window-maximized="0"
     inkscape:current-layer="svg20" />
  <g
     id="g59"
     transform="translate(-106,-89.794188)">
    <path
       fill-rule="evenodd"
       clip-rule="evenodd"
       d="m 876.672,403.202 c -14.819,5.364 -23.068,21.05 -18.409,35.007 4.659,13.958 20.473,20.935 35.292,15.572 14.819,-5.364 23.068,-21.05 18.409,-35.007 -4.659,-13.957 -20.473,-20.935 -35.292,-15.572 z M 393.035,261.378 c 3.869,0 5.803,1.935 5.803,5.804 v 181.839 c 0,3.868 -1.934,5.803 -5.803,5.803 h -38.303 c -3.869,0 -5.803,-1.935 -5.803,-5.803 V 267.182 c 0,-3.869 1.934,-5.804 5.803,-5.804 z m 157.464,-1.547 c 42.172,0 56.873,28.63 56.873,68.093 v 121.097 c 0,3.868 -1.934,5.803 -5.803,5.803 h -38.302 c -3.869,0 -5.804,-1.935 -5.804,-5.803 V 322.12 c 0,-13.154 -9.672,-17.797 -20.892,-17.797 h -4.642 c -16.637,0 -28.63,6.964 -32.886,13.928 v 130.77 c 0,3.868 -1.935,5.803 -5.804,5.803 h -38.302 c -3.869,0 -5.803,-1.935 -5.803,-5.803 V 267.182 c 0,-3.869 1.934,-5.804 5.803,-5.804 h 38.302 c 3.869,0 5.804,1.935 5.804,5.804 v 17.023 c 5.803,-9.672 20.505,-24.374 49.135,-24.374 z M 697.905,184 c 3.869,0 5.803,1.935 5.803,5.803 v 134.252 l 54.939,-58.034 c 2.321,-2.708 5.803,-4.643 8.899,-4.643 h 39.849 c 5.03,0 9.672,5.804 2.708,13.155 l -57.646,61.902 67.319,107.943 c 2.321,4.256 1.934,10.446 -4.643,10.446 h -36.368 c -5.029,0 -9.672,-1.548 -12.767,-6.964 l -47.201,-78.152 -15.089,15.089 v 64.224 c 0,3.868 -1.934,5.803 -5.803,5.803 h -38.302 c -3.869,0 -5.804,-1.935 -5.804,-5.803 V 189.803 c 0,-3.868 1.935,-5.803 5.804,-5.803 z m -331.528,9.192 c -14.524,4.391 -23.263,19.045 -19.505,32.704 3.759,13.658 18.601,21.182 33.125,16.791 14.523,-4.391 23.263,-19.046 19.504,-32.704 -3.758,-13.658 -18.601,-21.182 -33.124,-16.791 z"
       fill="#d8b6ff"
       id="path2" />
    <path
       fill-rule="evenodd"
       clip-rule="evenodd"
       d="m 871.936,358.164 -8.431,-0.063 c -3.869,0 -5.803,-1.934 -5.803,-5.803 V 189.803 c 0,-3.868 1.934,-5.803 5.803,-5.803 h 39.463 c 3.869,0 5.804,1.935 5.804,5.803 l -0.024,5.484 c -15.008,3.656 -26.694,18.949 -27.629,38.018 -0.751,15.316 5.624,29.19 15.701,37.04 -7.507,5.108 -13.025,13.734 -14.408,24.065 -1.506,11.248 2.24,21.904 9.186,28.949 -7.011,3.078 -13.397,9.368 -17.031,17.662 -2.569,5.864 -3.371,11.836 -2.631,17.143 z"
       fill="#d8b6ff"
       id="path4" />
    <path
       fill-rule="evenodd"
       clip-rule="evenodd"
       d="m 884.126,345.023 c -2.877,6.566 -0.676,13.499 4.911,15.473 5.587,1.974 12.458,-1.755 15.335,-8.321 2.877,-6.567 0.676,-13.5 -4.911,-15.473 -5.587,-1.974 -12.458,1.755 -15.335,8.321 z m 10.419,-48.072 c -1.92,10.165 3.44,19.709 11.964,21.298 8.523,1.59 17.002,-5.374 18.923,-15.539 1.921,-10.166 -3.44,-19.71 -11.963,-21.299 -8.524,-1.589 -17.003,5.374 -18.924,15.54 z m -2.141,-59.916 c -0.682,13.91 8.254,25.874 19.942,26.7 11.688,0.827 21.731,-9.795 22.413,-23.705 0.682,-13.91 -8.254,-25.874 -19.942,-26.7 -11.688,-0.826 -21.731,9.796 -22.413,23.705 z"
       fill="#d8b6ff"
       id="path6" />
    <rect
       width="144"
       height="36"
       rx="8"
       transform="matrix(1,0,0,-1,960,455)"
       fill="#5a007e"
       id="rect8"
       x="0"
       y="0" />
    <path
       d="m 176,263 c 0,-4.418 3.582,-8 8,-8 h 24 c 4.418,0 8,3.582 8,8 v 24 c 0,4.418 -3.582,8 -8,8 h -24 c -4.418,0 -8,-3.582 -8,-8 z"
       fill="#5a007e"
       id="path10" />
    <path
       d="m 176,447 c 0,4.418 3.582,8 8,8 h 24 c 4.418,0 8,-3.582 8,-8 v -24 c 0,-4.418 -3.582,-8 -8,-8 h -24 c -4.418,0 -8,3.582 -8,8 z"
       fill="#5a007e"
       id="path12" />
    <path
       d="m 216,303 c 0,-4.418 3.582,-8 8,-8 h 24 c 4.418,0 8,3.582 8,8 v 24 c 0,4.418 -3.582,8 -8,8 h -24 c -4.418,0 -8,-3.582 -8,-8 z"
       fill="#5a007e"
       id="path14" />
    <path
       d="m 216,407 c 0,4.418 3.582,8 8,8 h 24 c 4.418,0 8,-3.582 8,-8 v -24 c 0,-4.418 -3.582,-8 -8,-8 h -24 c -4.418,0 -8,3.582 -8,8 z"
       fill="#5a007e"
       id="path16" />
    <path
       d="m 256,343 c 0,-4.418 3.582,-8 8,-8 h 24 c 4.418,0 8,3.582 8,8 v 24 c 0,4.418 -3.582,8 -8,8 h -24 c -4.418,0 -8,-3.582 -8,-8 z"
       fill="#5a007e"
       id="path18" />
  </g>
</svg>
